<?xml version="1.0" encoding="UTF-8" standalone="no"?>
<!-- Created with Inkscape (http://www.inkscape.org/) -->

<svg
   width="48mm"
   height="48mm"
   viewBox="0 0 48 48"
   version="1.1"
   id="svg1"
   xml:space="preserve"
   sodipodi:docname="io.github.fpiesche.f2bgl.svg"
   inkscape:version="1.3.2 (091e20ef0f, 2023-11-25)"
   xmlns:inkscape="http://www.inkscape.org/namespaces/inkscape"
   xmlns:sodipodi="http://sodipodi.sourceforge.net/DTD/sodipodi-0.dtd"
   xmlns:xlink="http://www.w3.org/1999/xlink"
   xmlns="http://www.w3.org/2000/svg"
   xmlns:svg="http://www.w3.org/2000/svg"><sodipodi:namedview
     id="namedview1"
     pagecolor="#ffffff"
     bordercolor="#000000"
     borderopacity="0.25"
     inkscape:showpageshadow="2"
     inkscape:pageopacity="0.0"
     inkscape:pagecheckerboard="0"
     inkscape:deskcolor="#d1d1d1"
     inkscape:document-units="mm"
     inkscape:zoom="1.1893044"
     inkscape:cx="2.5224829"
     inkscape:cy="102.58097"
     inkscape:window-width="1920"
     inkscape:window-height="1170"
     inkscape:window-x="0"
     inkscape:window-y="30"
     inkscape:window-maximized="1"
     inkscape:current-layer="layer1" /><defs
     id="defs1"><linearGradient
       id="linearGradient209"
       inkscape:collect="always"><stop
         style="stop-color:#ffffff;stop-opacity:1;"
         offset="0"
         id="stop209" /><stop
         style="stop-color:#000000;stop-opacity:1;"
         offset="1"
         id="stop210" /></linearGradient><linearGradient
       id="linearGradient203"
       inkscape:collect="always"><stop
         style="stop-color:#f1f2f3;stop-opacity:1;"
         offset="0"
         id="stop203" /><stop
         style="stop-color:#7c8c93;stop-opacity:1;"
         offset="0.5"
         id="stop205" /><stop
         style="stop-color:#2b3134;stop-opacity:1;"
         offset="1"
         id="stop204" /></linearGradient><radialGradient
       inkscape:collect="always"
       xlink:href="#linearGradient203"
       id="radialGradient204"
       cx="120.672"
       cy="78.02713"
       fx="120.672"
       fy="78.02713"
       r="22.762119"
       gradientTransform="matrix(1,0,0,0.89449696,0.73785339,11.37145)"
       gradientUnits="userSpaceOnUse" /><linearGradient
       inkscape:collect="always"
       xlink:href="#linearGradient209"
       id="linearGradient210"
       x1="143.82812"
       y1="57.559978"
       x2="97.888283"
       y2="98.383034"
       gradientUnits="userSpaceOnUse"
       gradientTransform="translate(0.73785339,3.1393501)" /></defs><g
     inkscape:label="Layer 1"
     inkscape:groupmode="layer"
     id="layer1"
     transform="translate(-97.409876,-57.166476)"><path
       id="path1-6"
       style="fill:url(#radialGradient204);stroke:url(#linearGradient210);stroke-width:1;stroke-linecap:square;stroke-dasharray:none;paint-order:markers stroke fill"
       d="M 130.72963,81.16649 V 65.116697 l 5.05334,0.02222 c 5.62097,0.02474 5.3426,0.0032 6.34473,0.492507 0.93562,0.45687 1.57388,1.319189 1.78217,2.407792 0.14693,0.767981 0.13841,8.086134 -0.0102,8.810913 -0.2941,1.433752 -1.20651,2.365905 -2.67875,2.736733 -0.51494,0.1297 -0.67541,0.212409 -0.41211,0.212409 0.0888,0 0.37147,0.05988 0.62819,0.133017 1.437,0.409499 2.27166,1.232375 2.61816,2.581197 0.10663,0.415078 0.11677,0.935336 0.11677,5.99155 0,6.089341 0.0124,5.887183 -0.41378,6.771154 -0.24903,0.516602 -0.94386,1.193633 -1.49336,1.455129 -0.94619,0.450275 -0.7601,0.436864 -6.41504,0.462094 l -5.12005,0.02285 z m 7.44619,11.670666 c 0.10118,-0.07564 0.24585,-0.220422 0.32149,-0.321725 0.1355,-0.181443 0.13783,-0.255342 0.15641,-4.96584 0.0208,-5.275147 0.0293,-5.155981 -0.39263,-5.511004 -0.27606,-0.232288 -0.59221,-0.303863 -1.34403,-0.304288 l -0.65044,-3.78e-4 v 5.642374 5.642367 l 0.86262,-0.02198 c 0.74642,-0.01899 0.8874,-0.0405 1.04658,-0.159523 z m 0.007,-15.319074 c 0.49725,-0.329163 0.49332,-0.29503 0.47145,-4.089661 l -0.0192,-3.335539 -0.15262,-0.245431 c -0.24988,-0.401848 -0.58757,-0.521747 -1.46951,-0.521747 h -0.74611 v 4.209646 4.209646 l 0.82216,-0.02356 c 0.76091,-0.02175 0.8424,-0.03695 1.09383,-0.203371 z M 98.647873,81.166484 V 65.116697 h 5.139547 5.13956 l -0.0177,2.085475 -0.0177,2.085469 -2.35242,0.01758 -2.35241,0.0175 v 4.336925 4.336926 h 2.13552 2.13552 v 1.901949 1.901948 h -2.13552 -2.13552 v 7.7079 7.7079 h -2.76951 -2.769507 z m 12.883057,17.362971 v -2.99765 l 4.33151,-7.98785 c 2.38233,-4.39332 4.45903,-8.26212 4.61489,-8.59733 0.15586,-0.33522 0.36875,-0.94482 0.4731,-1.35467 0.18546,-0.72848 0.18972,-0.85239 0.18994,-5.52885 l 2.3e-4,-4.78367 -0.20609,-0.35982 c -0.29036,-0.50697 -0.78164,-0.73611 -1.44859,-0.67563 -0.58868,0.0534 -0.92459,0.26259 -1.15005,0.71629 -0.14811,0.29805 -0.16019,0.61927 -0.18255,4.85633 l -0.0239,4.53716 -3.14451,1.77051 c -1.72948,0.97377 -3.17737,1.78365 -3.21754,1.79971 -0.0407,0.0163 -0.0615,-3.37339 -0.0468,-7.66233 0.024,-7.03926 0.0388,-7.73463 0.1749,-8.19955 0.47953,-1.63818 1.49136,-2.62713 3.1367,-3.06577 0.7851,-0.20931 8.15959,-0.26536 9.28817,-0.0706 2.00824,0.34656 3.26033,1.49927 3.68065,3.38849 0.11596,0.52125 0.12892,1.38136 0.10085,6.69233 -0.0353,6.68171 -0.0111,6.34355 -0.57441,8.03319 -0.35784,1.0734 -0.80859,1.94718 -5.10051,9.88745 -2.08115,3.85024 -3.78391,7.02206 -3.78391,7.0485 0,0.0264 2.1336,0.0481 4.74134,0.0481 h 4.74133 v 2.75166 2.751675 h -8.29733 -8.29734 z"
       inkscape:export-filename="io.github.fpiesche.f2bgl.svg"
       inkscape:export-xdpi="96"
       inkscape:export-ydpi="96" /></g></svg>
